<mxfile host="65bd71144e">
    <diagram id="ZnhLUsuEGhlTqzVRgAeQ" name="Page-1">
        <mxGraphModel dx="1102" dy="681" grid="1" gridSize="10" guides="1" tooltips="1" connect="1" arrows="1" fold="1" page="1" pageScale="1" pageWidth="827" pageHeight="1169" math="0" shadow="0">
            <root>
                <mxCell id="0"/>
                <mxCell id="1" parent="0"/>
                <mxCell id="4" value="Банк" style="shape=umlLifeline;perimeter=lifelinePerimeter;whiteSpace=wrap;html=1;container=1;collapsible=0;recursiveResize=0;outlineConnect=0;" vertex="1" parent="1">
                    <mxGeometry x="414" y="60" width="100" height="1010" as="geometry"/>
                </mxCell>
                <mxCell id="13" value="" style="endArrow=classic;html=1;curved=1;" edge="1" parent="4">
                    <mxGeometry width="50" height="50" relative="1" as="geometry">
                        <mxPoint x="52.75" y="340" as="sourcePoint"/>
                        <mxPoint x="52.75" y="420" as="targetPoint"/>
                        <Array as="points">
                            <mxPoint x="139.25" y="340"/>
                            <mxPoint x="159.25" y="420"/>
                        </Array>
                    </mxGeometry>
                </mxCell>
                <mxCell id="16" value="" style="endArrow=classic;html=1;curved=1;" edge="1" parent="4">
                    <mxGeometry width="50" height="50" relative="1" as="geometry">
                        <mxPoint x="52.75" y="485" as="sourcePoint"/>
                        <mxPoint x="52.75" y="565" as="targetPoint"/>
                        <Array as="points">
                            <mxPoint x="139.25" y="485"/>
                            <mxPoint x="159.25" y="565"/>
                        </Array>
                    </mxGeometry>
                </mxCell>
                <mxCell id="3" value="Пользователь" style="shape=umlLifeline;perimeter=lifelinePerimeter;whiteSpace=wrap;html=1;container=1;collapsible=0;recursiveResize=0;outlineConnect=0;movable=1;resizable=1;rotatable=1;deletable=1;editable=1;connectable=1;" vertex="1" parent="1">
                    <mxGeometry x="140" y="60" width="150" height="1020" as="geometry"/>
                </mxCell>
                <mxCell id="12" value="Работа с меню (пополнение баланса)" style="shape=singleArrow;whiteSpace=wrap;html=1;" vertex="1" parent="3">
                    <mxGeometry x="80" y="290" width="240" height="60" as="geometry"/>
                </mxCell>
                <mxCell id="5" value="Ввод данных карты" style="shape=singleArrow;whiteSpace=wrap;html=1;" vertex="1" parent="1">
                    <mxGeometry x="220" y="110" width="240" height="60" as="geometry"/>
                </mxCell>
                <mxCell id="9" value="" style="endArrow=classic;html=1;curved=1;" edge="1" parent="1" source="4" target="4">
                    <mxGeometry width="50" height="50" relative="1" as="geometry">
                        <mxPoint x="530" y="240" as="sourcePoint"/>
                        <mxPoint x="580" y="180" as="targetPoint"/>
                        <Array as="points">
                            <mxPoint x="550" y="160"/>
                            <mxPoint x="570" y="240"/>
                        </Array>
                    </mxGeometry>
                </mxCell>
                <mxCell id="10" value="Проверка данных" style="text;html=1;align=center;verticalAlign=middle;resizable=0;points=[];autosize=1;strokeColor=none;fillColor=none;" vertex="1" parent="1">
                    <mxGeometry x="460" y="190" width="120" height="30" as="geometry"/>
                </mxCell>
                <mxCell id="11" value="Результат проверки, выдача меню" style="shape=singleArrow;direction=west;whiteSpace=wrap;html=1;" vertex="1" parent="1">
                    <mxGeometry x="220" y="270" width="240" height="60" as="geometry"/>
                </mxCell>
                <mxCell id="14" value="Проверка баланса&lt;br&gt;обработка запроса" style="text;html=1;align=center;verticalAlign=middle;resizable=0;points=[];autosize=1;strokeColor=none;fillColor=none;" vertex="1" parent="1">
                    <mxGeometry x="455" y="420" width="130" height="40" as="geometry"/>
                </mxCell>
                <mxCell id="15" value="Нет средств: уведомление" style="shape=singleArrow;direction=west;whiteSpace=wrap;html=1;" vertex="1" parent="1">
                    <mxGeometry x="220" y="490" width="240" height="60" as="geometry"/>
                </mxCell>
                <mxCell id="17" value="Средства есть: создание&lt;br&gt;&amp;nbsp;и исполнение транзакции" style="text;html=1;align=center;verticalAlign=middle;resizable=0;points=[];autosize=1;strokeColor=none;fillColor=none;" vertex="1" parent="1">
                    <mxGeometry x="425" y="570" width="170" height="40" as="geometry"/>
                </mxCell>
                <mxCell id="18" value="Уведомление о результате транзакции" style="shape=singleArrow;direction=west;whiteSpace=wrap;html=1;" vertex="1" parent="1">
                    <mxGeometry x="221" y="640" width="240" height="60" as="geometry"/>
                </mxCell>
            </root>
        </mxGraphModel>
    </diagram>
</mxfile>